<svg xmlns="http://www.w3.org/2000/svg" xmlns:xlink="http://www.w3.org/1999/xlink" xmlns:sketch="http://www.bohemiancoding.com/sketch/ns" viewBox="0 0 100 125" version="1.1" x="0px" y="0px"><title>Shopping On Computer</title><desc>Created with Sketch.</desc><g stroke="none" stroke-width="1" fill="none" fill-rule="evenodd" sketch:type="MSPage"><g sketch:type="MSArtboardGroup" fill="#9E9E9E"><path d="M72.5335046,91.1125713 L27.4111792,91.1125713 C26.6659837,91.1125713 26.0620022,90.5085898 26.0620022,89.7633943 C26.0620022,89.0181989 26.6659837,88.4142173 27.4111792,88.4142173 L32.9954228,88.4142173 L36.4866431,79.0495798 L10.2865252,79.0495798 C7.37140344,79.0495798 5,76.6781763 5,73.7630545 L5,14.1744036 C5,11.2592818 7.37140344,8.88742867 10.2865252,8.88742867 L89.6581585,8.88742867 C92.57373,8.88742867 94.9451335,11.2592818 94.9451335,14.1744036 L94.9451335,16.1932221 C94.9806618,16.3146481 95,16.4428199 95,16.575489 C95,16.708158 94.9806618,16.8367796 94.9451335,16.9577558 L94.9451335,73.7630545 C94.9451335,76.6781763 92.57373,79.0495798 89.6581585,79.0495798 L63.4580406,79.0495798 L66.949261,88.4142173 L72.5335046,88.4142173 C73.2787,88.4142173 73.8826816,89.0181989 73.8826816,89.7633943 C73.8826816,90.5085898 73.2787,91.1125713 72.5335046,91.1125713 L72.5335046,91.1125713 Z M35.8750162,88.4142173 L64.0692178,88.4142173 L60.5779974,79.0495798 L39.3662366,79.0495798 L35.8750162,88.4142173 L35.8750162,88.4142173 Z M61.5152257,76.3512258 L89.6581585,76.3512258 C91.0855878,76.3512258 92.2467795,75.1900341 92.2467795,73.7630545 L92.2467795,67.7268366 L7.698354,67.7268366 L7.698354,73.7630545 C7.698354,75.1900341 8.85954568,76.3512258 10.2865252,76.3512258 L61.5152257,76.3512258 L61.5152257,76.3512258 Z M7.698354,65.0284826 L92.2467795,65.0284826 L92.2467795,17.924666 L7.698354,17.924666 L7.698354,65.0284826 L7.698354,65.0284826 Z M7.698354,15.2263119 L92.2467795,15.2263119 L92.2467795,14.1744036 C92.2467795,12.7474241 91.0855878,11.5862324 89.6581585,11.5862324 L10.2865252,11.5862324 C8.85954568,11.5857827 7.698354,12.7469743 7.698354,14.1744036 L7.698354,15.2263119 L7.698354,15.2263119 Z M75.16395,59.1865462 L61.209862,59.1865462 C58.6702611,59.1865462 56.6042214,57.1205065 56.6042214,54.5809056 C56.6042214,52.0413048 58.6702611,49.9752651 61.209862,49.9752651 L75.16395,49.9752651 C77.7035508,49.9752651 79.7695905,52.0413048 79.7695905,54.5809056 C79.7695905,57.1205065 77.7035508,59.1865462 75.16395,59.1865462 L75.16395,59.1865462 Z M61.2094123,52.6736191 C60.1575039,52.6736191 59.3021257,53.529447 59.3021257,54.5809056 C59.3021257,55.6323643 60.1575039,56.4881922 61.2094123,56.4881922 L75.1635003,56.4881922 C76.2154086,56.4881922 77.0707868,55.6323643 77.0707868,54.5809056 C77.0707868,53.529447 76.2154086,52.6736191 75.1635003,52.6736191 L61.2094123,52.6736191 L61.2094123,52.6736191 Z M49.4594297,59.1865462 L18.2565635,59.1865462 C17.5113681,59.1865462 16.9073865,58.5825646 16.9073865,57.8373692 L16.9073865,25.8438852 C16.9073865,25.0986898 17.5113681,24.4947082 18.2565635,24.4947082 L49.4598795,24.4947082 C50.2050749,24.4947082 50.8090565,25.0986898 50.8090565,25.8438852 L50.8090565,57.8373692 C50.8086067,58.5825646 50.2050749,59.1865462 49.4594297,59.1865462 L49.4594297,59.1865462 Z M19.6057405,56.4881922 L48.1107025,56.4881922 L48.1107025,27.1930622 L19.6057405,27.1930622 L19.6057405,56.4881922 L19.6057405,56.4881922 Z M43.0530876,45.3871638 C42.7076983,45.3871638 42.3627587,45.2553942 42.0992195,44.9923047 C41.572141,44.4652262 41.572141,43.6111972 42.0992195,43.0841187 L43.8086267,41.3747114 L42.0992195,39.6653042 C41.572141,39.1386754 41.572141,38.2841966 42.0992195,37.7571182 C42.626298,37.2304894 43.4798773,37.2304894 44.0069558,37.7571182 L46.6702312,40.4203936 C46.6720301,40.421293 46.6724798,40.4226422 46.6733792,40.4235416 C46.6742787,40.4239914 46.6747284,40.4244411 46.6756279,40.4253405 C46.6756279,40.4257903 46.6760776,40.42624 46.6765273,40.4266897 C46.6774268,40.4271394 46.6778765,40.4280389 46.6787759,40.4289383 C46.6792257,40.4289383 46.6796754,40.4293881 46.6796754,40.4298378 C46.6805748,40.4302875 46.6814743,40.431187 46.6823738,40.4320864 L46.6828235,40.4325362 C46.6837229,40.4334356 46.6846224,40.4343351 46.6855218,40.4352345 L46.6859716,40.4352345 C46.686871,40.4365837 46.6877705,40.4374831 46.6886699,40.4383826 L46.6891196,40.4383826 C46.6900191,40.439282 46.6909185,40.4406312 46.6922677,40.4415307 L46.6922677,40.4415307 C46.9324212,40.6924776 47.0569952,41.0135817 47.06554,41.3369345 L47.06554,41.3369345 L47.06554,41.3405323 L47.06554,41.3405323 L47.06554,41.3441301 L47.06554,41.3445798 L47.06554,41.3477279 C47.06554,41.3477279 47.06554,41.3481776 47.0659897,41.3481776 L47.0659897,41.3513257 L47.0659897,41.3522251 L47.0659897,41.3549235 L47.0659897,41.3558229 L47.0659897,41.3585213 L47.0659897,41.3598705 L47.0659897,41.3621191 L47.0659897,41.3634683 L47.0659897,41.3657169 L47.0659897,41.3675158 L47.0659897,41.3693147 L47.0659897,41.3711136 L47.0659897,41.3729125 L47.0659897,41.3747114 L47.0659897,41.3765103 L47.0659897,41.378759 L47.0659897,41.3801081 L47.0659897,41.3823568 L47.0659897,41.3837059 L47.0659897,41.3864043 L47.0659897,41.3873037 L47.0659897,41.3900021 L47.0659897,41.3909016 L47.0659897,41.3940496 C47.06554,41.3940496 47.06554,41.3944994 47.06554,41.3944994 L47.06554,41.3976474 L47.06554,41.3980972 L47.06554,41.401695 L47.06554,41.401695 L47.06554,41.4052928 L47.06554,41.4052928 C47.0565455,41.7286455 46.9324212,42.0497497 46.6922677,42.3006966 L46.6922677,42.3006966 C46.6909185,42.301596 46.6900191,42.3024955 46.6891196,42.3038447 L46.6886699,42.3038447 C46.6877705,42.3047441 46.686871,42.3056436 46.6859716,42.306543 L46.6855218,42.306543 L46.6828235,42.3092414 L46.6823738,42.3096911 C46.6814743,42.3105905 46.6805748,42.31149 46.6796754,42.3119397 C46.6792257,42.3123894 46.6792257,42.3123894 46.6787759,42.3128392 C46.6778765,42.3132889 46.6774268,42.3141883 46.6765273,42.3146381 C46.6756279,42.3159872 46.6747284,42.3173364 46.6733792,42.3177862 C46.6724798,42.3191353 46.6720301,42.3200348 46.6702312,42.3209342 L44.0069558,44.9842096 C43.7438662,45.2553942 43.3984769,45.3871638 43.0530876,45.3871638 L43.0530876,45.3871638 Z M24.3962183,45.3871638 C24.050829,45.3871638 23.7058894,45.2553942 23.4423502,44.991855 L20.7790748,42.3285796 C20.7781753,42.3281298 20.7777256,42.3272304 20.7768261,42.3267807 C20.7763764,42.3263309 20.7763764,42.3263309 20.7759267,42.3258812 C20.7750272,42.3249818 20.7736781,42.3240823 20.7727786,42.3231829 L20.7727786,42.3231829 C20.5155355,42.0627917 20.3860145,41.7236985 20.3837659,41.3837059 L20.3837659,41.3837059 L20.3837659,41.3805579 L20.3837659,41.3801081 L20.3837659,41.3774098 L20.3837659,41.373812 L20.3837659,41.3715633 L20.3837659,41.3706639 L20.3837659,41.3675158 L20.3837659,41.3675158 C20.3860145,41.0279729 20.5155355,40.6884301 20.7727786,40.4280389 L20.7727786,40.4280389 C20.7736781,40.4271394 20.7750272,40.42624 20.7759267,40.4253405 C20.7759267,40.4248908 20.7763764,40.4248908 20.7768261,40.4244411 C20.7772759,40.4239914 20.7781753,40.4230919 20.7790748,40.4226422 L23.4423502,37.7593668 C23.9685292,37.2322883 24.823008,37.232738 25.3500864,37.7593668 C25.8771649,38.2864453 25.8771649,39.1404743 25.3500864,39.6675528 L23.6406792,41.3769601 L25.3500864,43.0863673 C25.8771649,43.6129961 25.8771649,44.4674748 25.3500864,44.9945533 C25.0865472,45.2553942 24.7411579,45.3871638 24.3962183,45.3871638 L24.3962183,45.3871638 Z M70.7921668,43.1898042 L57.9529487,43.1898042 C57.2077533,43.1898042 56.6037717,42.5858226 56.6037717,41.8406272 C56.6037717,41.0954318 57.2077533,40.4914502 57.9529487,40.4914502 L70.7921668,40.4914502 C71.5373622,40.4914502 72.1413438,41.0954318 72.1413438,41.8406272 C72.1413438,42.5858226 71.5373622,43.1898042 70.7921668,43.1898042 L70.7921668,43.1898042 Z M82.0726357,33.3165269 L57.9529487,33.3165269 C57.2077533,33.3165269 56.6037717,32.7125453 56.6037717,31.9673499 C56.6037717,31.2221545 57.2077533,30.6181729 57.9529487,30.6181729 L82.0726357,30.6181729 C82.8178311,30.6181729 83.4218127,31.2221545 83.4218127,31.9673499 C83.4218127,32.7125453 82.8178311,33.3165269 82.0726357,33.3165269 L82.0726357,33.3165269 Z M74.0490801,27.1930622 L57.9529487,27.1930622 C57.2077533,27.1930622 56.6037717,26.5890807 56.6037717,25.8438852 C56.6037717,25.0986898 57.2077533,24.4947082 57.9529487,24.4947082 L74.0490801,24.4947082 C74.7942755,24.4947082 75.3982571,25.0986898 75.3982571,25.8438852 C75.3982571,26.5890807 74.7942755,27.1930622 74.0490801,27.1930622 L74.0490801,27.1930622 Z" sketch:type="MSShapeGroup"/></g></g></svg>