<?xml version="1.0" encoding="utf-8"?>
<!-- Generator: Adobe Illustrator 16.0.0, SVG Export Plug-In . SVG Version: 6.00 Build 0)  -->
<!DOCTYPE svg PUBLIC "-//W3C//DTD SVG 1.1//EN" "http://www.w3.org/Graphics/SVG/1.1/DTD/svg11.dtd">
<svg version="1.1" id="Calque_1" xmlns="http://www.w3.org/2000/svg" xmlns:xlink="http://www.w3.org/1999/xlink" x="0px" y="0px"
	 width="612px" height="792px" viewBox="0 0 612 792" enable-background="new 0 0 612 792" xml:space="preserve">
<g>
	<path fill="#424242" d="M347.604,446.318c14.505-10.789,23.966-28.011,23.966-47.436c0-32.62-26.536-59.162-59.162-59.162
		c-32.625,0-59.162,26.536-59.162,59.162c0,19.438,9.461,36.658,23.978,47.448c-17.148,6.689-31.812,18.084-42.32,32.564
		c-35.141-18.097-63.33-47.847-78.954-84.371c-4.278-10-7.613-20.49-9.92-31.359l0,0l29.021,23.097
		c3.966,3.158,9.743,2.503,12.901-1.469c3.158-3.966,2.503-9.743-1.469-12.901l-48.25-38.403c-3.966-3.164-9.743-2.503-12.901,1.469
		l-38.403,48.25c-3.158,3.966-2.503,9.743,1.469,12.901c1.866,1.487,4.131,2.124,6.334,1.977c2.485-0.165,4.89-1.341,6.567-3.439
		l24.798-31.157c1.457,7.613,3.354,15.067,5.691,22.332c15.386,47.815,49.321,87.296,93.232,110.203
		c-4.804,11.028-7.466,23.14-7.466,35.851c0,5.073,4.106,9.181,9.18,9.181h171.36c0.043,0,0.079,0,0.122,0
		c5.074,0,9.181-4.107,9.181-9.181c0-0.538-0.05-1.071-0.135-1.585C406.588,492.225,382.041,459.752,347.604,446.318z
		 M271.612,398.883c0-22.498,18.305-40.802,40.802-40.802c22.497,0,40.802,18.305,40.802,40.802
		c0,22.497-18.305,40.802-40.802,40.802C289.917,439.685,271.612,421.38,271.612,398.883z M236.495,522.69
		c4.7-36.396,36.953-64.652,75.912-64.652c38.96,0,71.213,28.256,75.913,64.652H236.495z"/>
	<path fill="#424242" d="M553.438,310.595c-0.667-38.066-25.208-70.533-59.651-83.966c14.504-10.79,23.966-28.011,23.966-47.436
		c0-32.625-26.536-59.162-59.162-59.162s-59.162,26.537-59.162,59.162c0,19.437,9.462,36.659,23.979,47.448
		c-34.921,13.617-59.677,46.793-59.677,85.545c0,5.074,4.107,9.18,9.181,9.18h109.407c0.098,2.148,0.184,4.302,0.184,6.475
		c0,35.19-10.741,67.92-29.119,95.081c-6.916,10.221-14.951,19.621-23.862,28.104l6.071-32.871
		c0.924-4.988-2.374-9.773-7.356-10.697c-4.987-0.925-9.773,2.374-10.697,7.355l-11.206,60.638
		c-0.924,4.987,2.375,9.773,7.356,10.697l60.637,11.206c4.988,0.924,9.773-2.375,10.698-7.356c0.435-2.344-0.067-4.646-1.236-6.518
		c-1.316-2.111-3.482-3.69-6.126-4.174l-41.672-7.699c5.704-4.908,11.139-10.129,16.225-15.673
		c30.967-33.776,49.908-78.759,49.908-128.086c0-2.173-0.073-4.321-0.159-6.475h42.308c0.043-0.006,0.08,0,0.123,0
		c5.073,0,9.18-4.106,9.18-9.18C553.578,311.642,553.529,311.109,553.438,310.595z M417.794,179.193
		c0-22.497,18.305-40.802,40.802-40.802s40.803,18.305,40.803,40.802s-18.306,40.802-40.803,40.802S417.794,201.684,417.794,179.193
		z M382.684,303c4.7-36.396,36.952-64.652,75.912-64.652s71.213,28.256,75.913,64.652H382.684z"/>
	<path fill="#424242" d="M239.084,321.36c5.073,0,9.18-4.106,9.18-9.18c0-0.539-0.049-1.071-0.134-1.585
		c-0.667-38.066-25.208-70.533-59.652-83.966c11.402-8.482,19.694-20.924,22.705-35.312c28.299-21.059,63.312-33.574,101.225-33.574
		c1.787,0,3.55,0.08,5.325,0.135c13.103,0.404,25.838,2.265,38.042,5.49l-38.887,14.406c-4.756,1.763-7.186,7.044-5.423,11.799
		c1.763,4.755,7.045,7.179,11.8,5.422l57.828-21.42c4.755-1.756,7.179-7.044,5.422-11.799l-21.42-57.828
		c-1.763-4.755-7.044-7.179-11.8-5.422c-2.233,0.826-3.953,2.436-4.969,4.4c-1.139,2.215-1.384,4.884-0.453,7.399l12.589,33.978l0,0
		c-6.903-1.812-13.966-3.213-21.15-4.241c-8.795-1.254-17.767-1.94-26.904-1.94c-37.185,0-71.83,10.851-101.133,29.413
		c-5.435-27.057-29.363-47.497-57.993-47.497c-32.62,0-59.162,26.536-59.162,59.162c0,19.437,9.461,36.659,23.978,47.448
		c-34.921,13.617-59.676,46.793-59.676,85.545c0,5.073,4.106,9.18,9.18,9.18h171.36C239.004,321.354,239.041,321.36,239.084,321.36z
		 M112.485,179.193c0-22.497,18.305-40.802,40.802-40.802s40.802,18.305,40.802,40.802s-18.305,40.802-40.802,40.802
		S112.485,201.684,112.485,179.193z M77.369,303c4.7-36.396,36.953-64.652,75.913-64.652c38.959,0,71.212,28.256,75.912,64.652
		H77.369z"/>
</g>
</svg>
