<svg xmlns="http://www.w3.org/2000/svg" xmlns:xlink="http://www.w3.org/1999/xlink" version="1.1" x="0px" y="0px" viewBox="0 0 48 60" enable-background="new 0 0 48 48" xml:space="preserve"><g><g><g><path fill="none" stroke="#424242" stroke-width="2" stroke-miterlimit="10" d="M43.816,32.053H4.183     C2.425,32.053,1,30.627,1,28.871v-8.243c0-1.758,1.425-3.183,3.183-3.183s3.183,1.425,3.183,3.183v5.058h33.268v-5.058     c0-1.758,1.425-3.183,3.183-3.183c1.759,0,3.184,1.425,3.184,3.183v8.243C47,30.627,45.575,32.053,43.816,32.053z"/></g><path fill="none" stroke="#424242" stroke-width="2" stroke-miterlimit="10" d="M40.652,20.382v-4.038    c0-2.918-2.388-5.305-5.306-5.305H12.654c-2.918,0-5.306,2.387-5.306,5.305v4.038"/><g><line fill="none" stroke="#424242" stroke-width="2" stroke-linecap="round" stroke-linejoin="round" stroke-miterlimit="10" x1="7.113" y1="32.766" x2="7.113" y2="36.961"/><line fill="none" stroke="#424242" stroke-width="2" stroke-linecap="round" stroke-linejoin="round" stroke-miterlimit="10" x1="40.887" y1="32.766" x2="40.887" y2="36.961"/></g></g><line fill="none" stroke="#424242" stroke-width="2" stroke-linecap="round" stroke-linejoin="round" stroke-miterlimit="10" x1="24" y1="24.979" x2="24" y2="11.633"/></g></svg>