<?xml version="1.0" encoding="utf-8"?>
<!-- Generator: Adobe Illustrator 16.0.0, SVG Export Plug-In . SVG Version: 6.00 Build 0)  -->
<!DOCTYPE svg PUBLIC "-//W3C//DTD SVG 1.1//EN" "http://www.w3.org/Graphics/SVG/1.1/DTD/svg11.dtd">
<svg version="1.1" id="Capa_1" xmlns="http://www.w3.org/2000/svg" xmlns:xlink="http://www.w3.org/1999/xlink" x="0px" y="0px"
	 width="49.652px" height="49.652px" viewBox="0 0 49.652 49.652" enable-background="new 0 0 49.652 49.652" xml:space="preserve">
<g>
	<g>
		<g>
			<path fill="#FEFEFE" d="M21.5,28.94c-0.161-0.107-0.326-0.224-0.499-0.34c-0.503-0.154-1.037-0.234-1.584-0.241h-0.065
				c-2.515,0-4.719,1.521-4.719,3.257c0,1.89,1.89,3.367,4.3,3.367c3.179,0,4.79-1.099,4.79-3.258c0-0.204-0.024-0.416-0.075-0.629
				C23.432,30.258,22.663,29.735,21.5,28.94z"/>
			<path fill="#FEFEFE" d="M19.719,22.352c0.002,0,0.002,0,0.002,0c0.601,0,1.107-0.237,1.501-0.688
				c0.615-0.702,0.889-1.854,0.727-3.077c-0.285-2.186-1.848-4.006-3.479-4.053l-0.065-0.002c-0.577,0-1.092,0.238-1.483,0.686
				c-0.606,0.693-0.863,1.791-0.705,3.013c0.286,2.184,1.883,4.07,3.479,4.121H19.719L19.719,22.352z"/>
			<path fill="#FEFEFE" d="M24.826,0C11.137,0,0,11.137,0,24.826s11.138,24.826,24.826,24.826s24.826-11.138,24.826-24.826
				S38.516,0,24.826,0z M21.964,36.915c-0.938,0.271-1.952,0.408-3.018,0.408c-1.187,0-2.326-0.136-3.389-0.405
				c-2.058-0.519-3.577-1.503-4.287-2.771c-0.307-0.548-0.461-1.132-0.461-1.737c0-0.623,0.148-1.255,0.442-1.881
				c1.127-2.402,4.099-4.019,7.39-4.019c0.032,0,0.063,0,0.094,0c-0.268-0.471-0.396-0.959-0.396-1.472
				c0-0.255,0.034-0.515,0.103-0.78c-3.452-0.077-6.035-2.605-6.035-5.938c0-2.354,1.881-4.646,4.571-5.572
				c0.805-0.277,1.626-0.42,2.433-0.42h7.382c0.251,0,0.475,0.163,0.553,0.402c0.077,0.237-0.009,0.5-0.212,0.646l-1.65,1.195
				c-0.1,0.07-0.218,0.108-0.341,0.108H24.55c0.764,0.915,1.21,2.22,1.21,3.685c0,1.617-0.817,3.146-2.307,4.311
				c-1.149,0.896-1.195,1.144-1.195,1.654c0.015,0.281,0.815,1.198,1.699,1.823c2.06,1.456,2.825,2.885,2.825,5.269
				C26.781,33.913,24.89,36.065,21.964,36.915z M38.635,24.253c0,0.32-0.261,0.58-0.579,0.58H33.86v4.197
				c0,0.32-0.261,0.58-0.578,0.58h-1.195c-0.321,0-0.582-0.26-0.582-0.58v-4.197h-4.191c-0.32,0-0.58-0.258-0.58-0.58V23.06
				c0-0.32,0.26-0.582,0.58-0.582h4.191v-4.193c0-0.321,0.261-0.58,0.582-0.58h1.195c0.317,0,0.578,0.259,0.578,0.58v4.193h4.194
				c0.318,0,0.579,0.26,0.579,0.58L38.635,24.253L38.635,24.253z"/>
		</g>
	</g>
</g>
</svg>
